# xmcd CD database file generated by Grip 2.92
# 
# Track frame offsets:
#       150
#       30161
#       46156
#       54962
#       71511
#       88365
#       115791
#       130396
#       145459
#       164479
#       179031
#       195359
#       221918
# 
# Disc length: 3199 seconds
# 
# Revision: 3
# Processed by: cddbd v1.4PL0 Copyright (c) Steve Scherf et al.
# Submitted via: Grip 2.92
# 
DISCID=bf0c7d0d
DTITLE=Various Artist - Out On The Streets - Disc 2
DYEAR=1900
DGENRE=
TTITLE0=Sundown - Sharon Lane and Danny Sauers
TTITLE1=Darren Jones - Cloud
TTITLE2=Watch Out Love - Jonathan Price
TTITLE3=Curtis Jackson - Robusto Rejecto
TTITLE4=December Star - Jason Himes
TTITLE5=Voodoo Doll - Emily Strand
TTITLE6=Say Good-Bye - Casey McClain
TTITLE7=Don't Leave Me Behind - Noah Wotherspoon
TTITLE8=What Makes You Happy - Chris McCoy
TTITLE9=Scream - Master Brian
TTITLE10=Lately - K.C. Kelly and The Reverend Dave
TTITLE11=The Trolley Song - K.C. Kelly and The Reverend Dave
TTITLE12=Slip On Honesty - Todd
EXTD=
EXTT0=
EXTT1=
EXTT2=
EXTT3=
EXTT4=
EXTT5=
EXTT6=
EXTT7=
EXTT8=
EXTT9=
EXTT10=
EXTT11=
EXTT12=
PLAYORDER=
